<svg xmlns="http://www.w3.org/2000/svg" viewBox="0 0 192 192" width="192" height="192">
  <defs>
    <linearGradient id="pwaGrad192" x1="0%" y1="0%" x2="100%" y2="100%">
      <stop offset="0%" stop-color="#22d3ee" />
      <stop offset="100%" stop-color="#f43f5e" />
    </linearGradient>
    <filter id="pwaShadow192" x="-10%" y="-10%" width="120%" height="120%">
      <feDropShadow dx="0" dy="3" stdDeviation="6" flood-color="#09090b" flood-opacity="0.25" />
    </filter>
  </defs>

  <!-- PWA App Icon Base -->
  <rect width="192" height="192" rx="42" fill="url(#pwaGrad192)" />
  <rect x="3" y="3" width="186" height="186" rx="39" fill="none" stroke="#ffffff" stroke-width="1.2" stroke-opacity="0.3" />

  <!-- Center Master Glyph -->
  <g filter="url(#pwaShadow192)" fill="#ffffff">
    <!-- Music Note Head -->
    <ellipse cx="67" cy="126" rx="17" ry="14.5" transform="rotate(-20 67 126)" />
    
    <!-- Music Note Stem rising into Play Structure -->
    <path d="M 76.5 120 L 76.5 60 C 76.5 54.5 81 51 86 51 C 89 51 92 52.5 94.5 54.5 L 130 85.5 C 136 90.5 136 99.5 130 104.5 L 94.5 135.5 C 92 137.5 89 139 86 139 C 81 139 76.5 135.5 76.5 130 Z" />
    
    <!-- Inner Accent Cutout -->
    <path d="M 92.5 76 L 116 94.5 C 118 96.5 118 100 116 102 L 92.5 120.5 C 89.5 122.5 85.5 120.5 85.5 117 L 85.5 79.5 C 85.5 76 89.5 74 92.5 76 Z" fill="#09090b" fill-opacity="0.18" />
  </g>

  <!-- Live Pulse Waves -->
  <path d="M 140 67 A 39 39 0 0 1 140 123" fill="none" stroke="#ffffff" stroke-width="8.5" stroke-linecap="round" />
  <path d="M 153.5 53.5 A 58 58 0 0 1 153.5 136.5" fill="none" stroke="#ffffff" stroke-width="7.5" stroke-linecap="round" opacity="0.65" />
</svg>
